<svg width="24" height="24" viewBox="0 0 24 24" fill="none" xmlns="http://www.w3.org/2000/svg">
<g clip-path="url(#clip0_110_663)">
<path d="M21.2901 5.89001L11.2901 15.89C11.1976 15.9827 11.0877 16.0563 10.9667 16.1064C10.8458 16.1566 10.7161 16.1825 10.5851 16.1825C10.4542 16.1825 10.3245 16.1566 10.2035 16.1064C10.0825 16.0563 9.97264 15.9827 9.88012 15.89L7.05012 13.06C6.95754 12.9674 6.8841 12.8575 6.834 12.7366C6.78389 12.6156 6.7581 12.4859 6.7581 12.355C6.7581 12.2241 6.78389 12.0944 6.834 11.9735C6.8841 11.8525 6.95754 11.7426 7.05012 11.65C7.1427 11.5574 7.25262 11.484 7.37358 11.4339C7.49454 11.3838 7.62419 11.358 7.75512 11.358C7.88605 11.358 8.0157 11.3838 8.13667 11.4339C8.25763 11.484 8.36754 11.5574 8.46012 11.65L10.5801 13.77L19.8701 4.48001C19.9626 4.3873 20.0725 4.31376 20.1935 4.26357C20.3145 4.21339 20.4442 4.18756 20.5751 4.18756C20.7061 4.18756 20.8358 4.21339 20.9567 4.26357C21.0777 4.31376 21.1876 4.3873 21.2801 4.48001C21.6801 4.87001 21.6801 5.50001 21.2901 5.89001ZM12.0001 20C7.29012 20 3.52012 15.91 4.05012 11.1C4.44012 7.58001 7.17012 4.69001 10.6601 4.11001C12.4701 3.81001 14.1901 4.13001 15.6501 4.89001C15.8862 5.01333 16.1615 5.03784 16.4156 4.95814C16.6698 4.87843 16.8818 4.70105 17.0051 4.46501C17.1284 4.22896 17.153 3.9536 17.0733 3.69949C16.9935 3.44537 16.8162 3.23333 16.5801 3.11001C15.1101 2.36001 13.4501 1.95001 11.6801 2.00001C6.54012 2.16001 2.27012 6.34001 2.01012 11.47C1.72012 17.24 6.30012 22 12.0001 22C13.2001 22 14.3401 21.79 15.4101 21.4C16.0901 21.15 16.2801 20.27 15.7601 19.75C15.6274 19.6155 15.4586 19.5222 15.2741 19.4814C15.0896 19.4406 14.8972 19.454 14.7201 19.52C13.8701 19.83 12.9501 20 12.0001 20ZM19.0001 15H17.0001C16.4501 15 16.0001 15.45 16.0001 16C16.0001 16.55 16.4501 17 17.0001 17H19.0001V19C19.0001 19.55 19.4501 20 20.0001 20C20.5501 20 21.0001 19.55 21.0001 19V17H23.0001C23.5501 17 24.0001 16.55 24.0001 16C24.0001 15.45 23.5501 15 23.0001 15H21.0001V13C21.0001 12.45 20.5501 12 20.0001 12C19.4501 12 19.0001 12.45 19.0001 13V15Z" fill="#828486"/>
</g>
<defs>
<clipPath id="clip0_110_663">
<rect width="24" height="24" fill="white"/>
</clipPath>
</defs>
</svg>
