<svg width="20" height="20" viewBox="0 0 20 20" fill="none" xmlns="http://www.w3.org/2000/svg">
<path d="M2.49982 10.8333H3.33315V16.6667C3.33315 17.5833 4.08315 18.3333 4.99982 18.3333H14.9998C15.9165 18.3333 16.6665 17.5833 16.6665 16.6667V10.8333H17.4998C17.8332 10.8333 18.1415 10.6333 18.2665 10.3167C18.3915 10.0083 18.3248 9.65001 18.0832 9.40835L10.5915 1.90835C10.5144 1.83109 10.4228 1.7698 10.322 1.72799C10.2212 1.68617 10.1131 1.66464 10.004 1.66464C9.89484 1.66464 9.78677 1.68617 9.68596 1.72799C9.58515 1.7698 9.49358 1.83109 9.41648 1.90835L1.90815 9.40835C1.66648 9.65001 1.59982 10.0083 1.72482 10.3167C1.84982 10.625 2.15815 10.8333 2.49148 10.8333H2.49982ZM9.99982 3.67501L14.9998 8.67501V16.6667H4.99982V8.67501L9.99982 3.67501Z" fill="#828486"/>
</svg>
