<svg width="852" height="795" viewBox="0 0 852 795" fill="none" xmlns="http://www.w3.org/2000/svg">
<path d="M821.864 219.261C842.55 319.631 853.955 444.974 818.329 542.259C782.21 638.088 709.122 715.533 615.383 757.331C504.936 807.872 356.092 805.076 243.044 763.719C36.4614 688.137 -48.5243 446.769 27.4189 248.064C64.0137 154.879 135.656 79.6016 227.084 38.295C376.846 -27.9853 512.789 0.800605 657.145 56.2883C619.259 109.777 592.828 141.562 540.222 180.327C352.421 146.492 307.141 149.558 192.597 301.722C224.297 283.068 244.098 266.769 272.517 243.913C309.231 273.139 381.962 351.381 423.656 388.825C455.967 333.236 525.35 268.073 568.352 220.329C628.76 153.269 690.544 88.2086 753.264 23.3515C782.822 55.3904 830.193 94.4605 852 122.162C815.932 158.013 437.355 572.892 420.324 577.077C396.63 569.401 206.127 361.513 177.283 328.119C179.849 414.442 183.435 513.626 250.183 576.84C367.072 687.595 591.689 643.34 645.332 487.517C654.953 459.731 656.108 407.903 672.511 383.742C711.944 325.713 772.93 269.141 821.864 219.261Z" fill="url(#paint0_linear_687_214)"/>
<defs>
<linearGradient id="paint0_linear_687_214" x1="830.112" y1="412.932" x2="7.74052" y2="379.376" gradientUnits="userSpaceOnUse">
<stop stop-color="#8080C1"/>
<stop offset="1" stop-color="#9A9AFF"/>
</linearGradient>
</defs>
</svg>
